<?xml version="1.0" standalone="no"?>
<!DOCTYPE svg PUBLIC "-//W3C//DTD SVG 20010904//EN"
 "http://www.w3.org/TR/2001/REC-SVG-20010904/DTD/svg10.dtd">
<svg version="1.0" xmlns="http://www.w3.org/2000/svg"
 width="16.000000pt" height="16.000000pt" viewBox="0 0 16.000000 16.000000"
 preserveAspectRatio="xMidYMid meet">
<metadata>
Created by potrace 1.11, written by Peter Selinger 2001-2013
</metadata>
<g transform="translate(0.000000,16.000000) scale(0.007048,-0.007048)"
fill="#000000" stroke="none">
<path d="M515 2260 c-17 -7 -16 -9 10 -9 17 0 37 4 45 9 12 8 10 10 -10 9 -14
0 -34 -4 -45 -9z"/>
<path d="M600 2260 c8 -5 22 -7 31 -5 24 8 21 -67 -3 -77 -22 -9 -23 -51 -3
-68 9 -7 14 -19 11 -25 -6 -17 21 -55 40 -55 8 0 14 -10 14 -24 0 -14 11 -38
25 -54 13 -16 22 -32 18 -36 -3 -3 2 -6 13 -7 14 0 15 -2 4 -6 -26 -10 -50
-35 -50 -54 0 -22 46 -60 65 -53 7 3 16 1 20 -5 3 -6 1 -11 -5 -11 -6 0 -9 -4
-6 -9 3 -5 -1 -12 -10 -15 -21 -8 -2 -33 29 -38 25 -3 35 -41 17 -64 -16 -18
-25 -18 -45 2 -9 9 -18 14 -21 11 -12 -12 8 -44 34 -58 48 -25 56 -37 43 -65
-16 -35 -14 -41 11 -48 18 -4 20 -8 10 -18 -6 -6 -12 -23 -12 -36 0 -21 -2
-22 -15 -12 -8 7 -15 20 -15 30 0 10 -9 19 -23 22 -21 4 -23 0 -25 -37 -1 -34
4 -46 24 -64 21 -18 25 -19 30 -6 4 8 13 15 20 15 17 0 17 -67 0 -89 -9 -12
-7 -12 12 -2 36 19 37 7 1 -33 -30 -35 -31 -39 -20 -76 7 -24 19 -41 32 -45
18 -6 38 -41 69 -122 10 -26 9 -35 -4 -55 -9 -14 -13 -28 -9 -31 3 -4 -7 -7
-23 -7 -20 0 -25 -3 -15 -9 23 -15 5 -54 -35 -74 -22 -11 -39 -14 -43 -8 -4 5
-16 1 -29 -9 -15 -13 -18 -20 -10 -23 8 -3 6 -6 -4 -6 -10 -1 -18 4 -18 9 0
15 -36 12 -49 -3 -6 -8 -8 -17 -4 -20 3 -4 0 -7 -7 -7 -7 0 -10 -3 -7 -6 4 -4
-2 -19 -12 -33 -10 -14 -21 -35 -25 -45 -3 -10 -9 -16 -12 -13 -3 3 -1 14 5
25 10 18 8 19 -36 11 -58 -11 -67 -19 -21 -19 32 0 35 -2 33 -29 -2 -41 -31
-68 -56 -53 -17 11 -19 9 -17 -28 1 -45 -7 -59 -24 -42 -8 8 -17 6 -36 -6 -17
-11 -27 -13 -29 -5 -7 21 -52 67 -68 69 -63 9 16 68 242 180 l192 95 7 57 c3
31 12 71 19 88 10 25 10 38 -2 70 -8 21 -19 62 -25 89 -13 58 -23 75 -49 75
-30 0 -47 -40 -56 -129 -5 -53 -13 -86 -21 -89 -9 -3 -10 2 -2 22 7 19 6 29
-5 40 -8 8 -11 16 -6 18 4 2 6 20 3 41 -3 28 -11 41 -28 49 -36 17 -57 -6 -51
-54 3 -21 2 -38 -3 -38 -10 0 -20 26 -20 54 0 12 -5 27 -12 34 -9 9 -9 15 0
24 7 7 12 22 12 34 0 25 -37 57 -54 47 -6 -4 -5 1 3 10 12 15 11 17 -8 17 -23
0 -28 15 -8 24 6 3 1 4 -13 3 -14 -1 -30 -6 -37 -10 -17 -10 -27 11 -13 28 6
8 10 26 7 42 -4 27 -4 26 -6 -5 -1 -25 -7 -35 -27 -43 -15 -5 -29 -7 -32 -4
-3 3 0 5 7 5 7 0 10 4 6 10 -3 5 -2 17 3 27 21 42 31 87 22 102 -8 15 -9 15
-15 -1 -15 -37 -104 18 -105 65 0 13 -6 17 -22 15 -35 -5 -38 45 -4 68 24 15
28 15 51 0 13 -9 30 -16 36 -16 7 0 21 -8 32 -17 18 -17 19 -17 33 2 10 14 13
32 8 62 -5 37 -2 47 20 74 37 44 22 88 -29 89 -17 0 -21 6 -21 35 0 27 4 35
17 35 10 0 21 5 24 11 9 14 -4 27 -13 13 -9 -14 -43 -14 -61 0 -11 8 -13 8 -7
-2 4 -7 4 -12 -1 -11 -34 6 -54 -4 -67 -33 -8 -18 -15 -27 -15 -20 -1 18 -21
15 -21 -3 0 -11 -8 -15 -27 -13 -25 3 -28 -1 -31 -29 -2 -20 -12 -37 -28 -47
-14 -10 -24 -26 -24 -40 0 -26 28 -56 53 -56 29 0 19 -17 -15 -26 -42 -12 -50
-54 -18 -88 12 -14 18 -29 14 -40 -3 -9 -1 -22 5 -30 6 -7 9 -15 6 -18 -9 -8
54 -58 73 -58 10 0 23 -5 30 -12 14 -14 16 -58 3 -58 -5 0 -13 -9 -16 -20 -3
-11 -12 -20 -20 -20 -7 0 -15 -3 -18 -7 -2 -5 -2 -3 -1 4 2 6 -4 14 -12 17 -8
3 -14 -1 -14 -9 0 -9 -6 -12 -15 -9 -27 11 -22 -44 6 -64 40 -28 16 -112 -32
-112 -11 0 -18 -4 -15 -9 3 -5 -1 -11 -9 -15 -8 -3 -15 -1 -15 4 0 6 -4 10
-10 10 -5 0 -10 -14 -10 -32 0 -25 3 -29 12 -20 30 30 88 2 88 -41 0 -16 -3
-18 -9 -9 -6 11 -10 10 -15 -4 -3 -9 -4 -19 -1 -22 3 -3 5 -2 5 3 0 4 7 2 15
-5 19 -16 19 -34 0 -26 -11 4 -15 -1 -15 -19 0 -14 4 -25 10 -25 5 0 6 -8 3
-17 -6 -17 -6 -17 11 0 10 10 20 32 21 50 2 28 25 54 25 28 0 -6 4 -11 10 -11
5 0 9 3 9 8 -6 34 29 44 64 18 22 -17 22 -23 0 -29 -15 -4 -15 -6 5 -12 12 -4
22 -13 22 -20 0 -8 3 -21 6 -29 5 -12 1 -16 -17 -14 -20 3 -24 -1 -22 -20 3
-22 1 -22 -112 -22 -112 0 -115 -1 -116 -22 -1 -13 -4 -90 -8 -172 l-6 -149
-44 -11 c-61 -15 -66 -36 -9 -38 40 -1 55 -3 68 -8 11 -4 48 -10 95 -16 28 -3
51 -7 53 -8 1 -2 -4 -19 -13 -39 -23 -55 -74 -319 -75 -384 l0 -23 968 0 967
0 -2 83 c-4 115 -23 284 -38 334 -7 23 -10 44 -7 47 3 4 20 6 39 6 26 0 33 4
33 20 0 15 7 20 25 20 16 0 28 7 31 18 3 9 10 25 15 34 5 10 9 45 9 77 0 44 4
62 16 69 9 5 15 12 15 15 -2 19 13 67 20 67 14 0 11 204 -3 218 -8 8 -8 12 -1
12 7 0 11 33 12 90 1 50 -1 90 -4 90 -3 0 -15 -6 -26 -12 -17 -10 -23 -10 -26
-1 -13 36 -46 63 -76 63 -20 0 -27 -3 -19 -8 16 -11 5 -42 -15 -42 -8 0 -11
-5 -8 -10 3 -5 1 -10 -6 -10 -9 0 -9 -3 0 -14 17 -20 0 -27 -28 -12 -15 9 -20
16 -12 20 30 19 -2 106 -40 106 -10 0 -19 5 -19 10 0 7 -8 7 -22 -1 -22 -12
-22 -12 -2 -20 24 -8 37 -42 22 -57 -5 -5 -19 -7 -32 -5 -22 5 -23 8 -25 134
-2 128 -2 129 21 130 13 1 28 2 33 4 6 1 16 3 24 3 11 2 11 5 0 18 -8 10 -23
14 -41 12 -33 -5 -33 -5 -12 27 10 16 14 34 10 53 -5 22 -1 33 19 52 22 21 28
22 35 10 5 -8 10 -19 10 -25 0 -5 7 -18 15 -29 14 -18 15 -18 58 7 25 15 47
33 51 42 4 11 22 15 63 17 l58 1 -60 7 c-33 4 -57 7 -53 8 16 4 -15 60 -39 71
-21 10 -23 14 -12 27 12 14 14 14 25 0 16 -23 31 -20 67 14 20 19 38 28 50 24
9 -3 17 -1 17 5 0 6 -6 11 -12 11 -9 0 -8 4 2 10 10 6 11 10 3 10 -7 0 -13 8
-13 18 0 15 2 15 11 2 9 -12 10 -12 5 3 -3 10 -6 29 -6 42 0 15 -8 25 -22 30
l-23 8 23 4 c12 2 22 11 22 19 0 8 -4 12 -10 9 -6 -4 -10 7 -10 25 0 25 -6 33
-31 44 -17 7 -27 16 -22 19 6 4 26 -2 45 -11 l35 -18 2 47 c1 43 -1 47 -28 58
-33 14 -159 8 -191 -9 -22 -12 -33 -43 -28 -85 2 -24 -2 -30 -22 -35 -18 -4
-30 0 -43 15 -18 20 -18 20 -7 -2 7 -16 8 -29 0 -42 -14 -28 -12 -64 5 -87 8
-10 15 -37 15 -60 0 -22 5 -45 10 -50 8 -8 1 -11 -21 -12 -64 -2 -91 -69 -51
-129 9 -15 11 -24 5 -20 -8 5 -23 -2 -39 -18 -26 -26 -28 -44 -9 -87 5 -14 2
-18 -13 -18 -11 0 -28 -7 -36 -16 -20 -19 -21 -78 -2 -93 12 -10 12 -17 1 -44
-8 -19 -10 -39 -5 -52 7 -19 4 -21 -44 -20 -45 0 -52 2 -58 23 -4 16 -1 33 8
48 27 41 -19 87 -54 52 -8 -8 -15 -8 -27 2 -8 7 -25 10 -36 7 -13 -3 -28 1
-37 9 -13 14 -12 19 9 47 19 25 25 49 29 107 5 69 7 75 30 81 16 4 19 7 8 8
-10 1 -18 8 -18 17 0 12 6 15 21 11 32 -9 43 35 27 107 -16 74 -40 106 -79
106 -28 0 -28 1 -11 20 24 28 30 60 19 93 -24 73 -127 48 -127 -30 l0 -34 -30
21 c-21 15 -30 30 -30 48 0 46 -26 72 -70 72 -28 0 -43 -6 -57 -23 -15 -19
-35 -26 -112 -37 -110 -16 -157 -30 -186 -58 -38 -36 -116 -75 -128 -63 -8 8
-5 17 11 31 29 27 28 54 -3 78 -20 16 -22 21 -10 26 24 9 30 54 10 76 -10 11
-24 20 -32 20 -12 0 -12 3 1 16 20 20 21 58 1 74 -8 7 -12 16 -9 21 3 5 -22 9
-55 9 -34 0 -61 -4 -61 -8 0 -5 -7 -9 -15 -9 -8 0 -15 4 -15 9 0 4 -21 8 -47
8 -35 0 -44 -3 -33 -10z m1646 -176 c19 -15 19 -16 -1 -8 -11 3 -36 10 -55 14
l-35 8 36 1 c19 0 44 -6 55 -15z m-1431 -4 c3 -5 1 -10 -4 -10 -6 0 -11 5 -11
10 0 6 2 10 4 10 3 0 8 -4 11 -10z m-45 -40 c0 -5 -2 -10 -4 -10 -3 0 -8 5
-11 10 -3 6 -1 10 4 10 6 0 11 -4 11 -10z m1413 -184 l36 -33 -30 -29 c-34
-33 -47 -26 -64 34 -9 30 -8 39 4 49 9 7 16 13 17 13 1 0 17 -15 37 -34z
m-1827 -11 c20 -27 17 -46 -11 -85 -14 -19 -25 -29 -25 -23 0 6 -9 13 -20 16
-11 3 -23 13 -26 24 -3 10 -9 25 -13 33 -5 8 -5 25 -1 36 11 28 76 27 96 -1z
m-145 -60 c1 -17 -18 -17 -25 0 -4 11 -1 15 10 13 8 -2 15 -7 15 -13z m99 -65
c0 -5 -2 -10 -4 -10 -3 0 -8 5 -11 10 -3 6 -1 10 4 10 6 0 11 -4 11 -10z m584
-325 c-4 -8 -8 -15 -10 -15 -2 0 -4 7 -4 15 0 8 4 15 10 15 5 0 7 -7 4 -15z
m1021 5 c3 -5 1 -10 -4 -10 -6 0 -11 5 -11 10 0 6 2 10 4 10 3 0 8 -4 11 -10z
m-510 -20 c3 -5 1 -10 -4 -10 -6 0 -11 5 -11 10 0 6 2 10 4 10 3 0 8 -4 11
-10z m185 -50 c0 -5 -4 -10 -10 -10 -5 0 -10 5 -10 10 0 6 5 10 10 10 6 0 10
-4 10 -10z m-1136 -58 c-10 -2 -13 -10 -9 -23 4 -13 2 -19 -9 -19 -9 0 -14 8
-13 20 1 11 6 20 11 20 6 0 5 5 -1 11 -6 6 -9 18 -6 26 5 12 10 11 24 -8 15
-20 16 -24 3 -27z m516 18 l25 -8 -25 0 c-14 0 -34 3 -45 8 l-20 9 20 -1 c11
0 31 -4 45 -8z m561 -92 c-59 -64 -71 -43 -19 32 31 45 33 46 43 26 9 -18 6
-27 -24 -58z m269 17 c0 -15 -6 -25 -14 -25 -11 0 -12 5 -3 25 15 31 17 31 17
0z m-40 -8 c0 -7 -15 -19 -32 -27 -18 -7 -35 -15 -38 -17 -3 -2 -7 10 -8 25
-2 27 0 29 38 30 27 1 40 -2 40 -11z m-1259 -80 c28 -27 23 -33 -23 -28 -37 3
-40 5 -20 12 22 8 28 20 16 32 -3 3 -17 1 -30 -5 -22 -10 -44 -58 -44 -95 0
-8 -14 -13 -35 -13 -19 0 -35 5 -35 10 0 6 9 10 20 10 11 0 20 2 20 4 0 2 3
11 6 20 5 12 -1 14 -30 9 -43 -7 -49 12 -14 41 21 18 22 18 40 -4 l18 -22 8
21 c4 12 21 30 37 40 27 16 31 17 39 2 5 -9 17 -24 27 -34z m969 23 c0 -34 15
-40 25 -10 4 12 15 20 29 20 19 0 23 -6 24 -39 1 -24 -4 -44 -13 -51 -12 -10
-15 -9 -15 4 0 9 -4 16 -9 16 -5 0 -16 3 -25 6 -12 5 -16 -1 -16 -22 l-1 -29
-14 30 c-7 17 -14 26 -15 20 -1 -5 -6 1 -11 14 -7 18 -5 30 6 47 21 33 35 30
35 -6z m326 19 c3 -6 2 -15 -4 -21 -6 -6 -12 -6 -16 1 -4 6 -22 12 -39 12
l-32 2 35 7 c19 4 38 8 42 9 4 0 10 -4 14 -10z m-164 -31 c-6 -6 -15 -8 -19
-4 -4 4 -1 11 7 16 19 12 27 3 12 -12z m-1417 -18 c3 -5 1 -10 -4 -10 -6 0
-11 5 -11 10 0 6 2 10 4 10 3 0 8 -4 11 -10z m1595 -5 c-14 -16 -110 -22 -110
-6 0 13 17 18 74 20 43 1 47 0 36 -14z m79 -36 c-10 -19 -9 -25 6 -35 10 -7
23 -15 29 -17 21 -8 -9 -41 -70 -77 -32 -20 -60 -42 -62 -50 -6 -28 -21 -33
-47 -16 -14 9 -30 14 -36 10 -7 -4 -7 1 0 15 7 11 21 21 33 21 21 0 123 54
133 70 8 12 -16 48 -35 54 -9 2 -7 4 7 5 14 1 25 11 33 34 7 17 14 27 17 20 2
-7 -1 -22 -8 -34z m109 37 c-2 -1 -10 -7 -19 -14 -13 -10 -18 -10 -22 0 -3 8
5 14 20 14 13 1 23 1 21 0z m-18 -51 c17 15 19 15 25 -4 3 -12 4 -30 0 -41 -5
-15 0 -21 19 -26 14 -3 31 -13 38 -21 11 -14 10 -15 -12 -8 -50 15 -90 38 -90
51 0 8 -4 14 -9 14 -4 0 -6 12 -3 28 5 20 7 22 10 9 3 -17 5 -17 22 -2z
m-1390 -4 c0 -6 -4 -13 -10 -16 -5 -3 -10 1 -10 9 0 9 5 16 10 16 6 0 10 -4
10 -9z m1610 -15 c0 -3 -4 -8 -10 -11 -5 -3 -10 -1 -10 4 0 6 5 11 10 11 6 0
10 -2 10 -4z m-704 -65 c30 12 30 11 26 -26 -3 -27 -9 -35 -24 -35 -14 0 -18
5 -14 15 3 8 1 15 -5 15 -5 0 -12 8 -16 18 -3 9 -13 26 -22 37 -9 12 -4 9 10
-5 18 -19 31 -24 45 -19z m-736 5 c0 -8 -4 -17 -9 -21 -12 -7 -24 12 -16 25 9
15 25 12 25 -4z m860 4 c0 -5 -2 -10 -4 -10 -3 0 -8 5 -11 10 -3 6 -1 10 4 10
6 0 11 -4 11 -10z m-912 -30 c0 -16 -3 -30 -8 -30 -7 0 -8 43 -1 58 4 9 8 -3
9 -28z m1525 -85 c-5 -33 -12 -57 -18 -55 -5 2 -9 10 -7 17 6 26 -8 12 -23
-22 -8 -20 -22 -43 -31 -52 -16 -16 -16 -15 -9 7 3 14 16 38 28 54 14 20 17
31 9 34 -24 8 -12 24 13 18 23 -6 25 -4 25 28 0 19 3 43 7 53 7 17 8 17 11 -2
1 -11 -1 -47 -5 -80z m-1654 29 c1 -50 0 -55 -14 -44 -18 15 -20 71 -3 88 7 7
13 12 13 12 1 0 3 -25 4 -56z m1028 -64 c13 0 22 -4 19 -9 -5 -8 95 -81 112
-81 5 0 17 -9 27 -20 10 -11 57 -46 104 -79 109 -75 182 -148 161 -161 -9 -5
-19 -5 -26 1 -8 7 -14 6 -19 -1 -3 -5 -13 -10 -21 -10 -12 0 -12 4 -2 19 7 11
16 17 20 15 15 -10 8 3 -17 30 -13 14 -27 26 -31 26 -4 0 2 -10 13 -22 18 -19
19 -25 8 -35 -11 -10 -16 -10 -21 -1 -5 7 -14 2 -29 -16 -42 -52 -95 -36 -60
18 19 29 10 36 -12 9 -7 -10 -13 -13 -12 -8 4 26 -4 33 -41 37 -37 3 -41 1
-55 -29 -16 -34 -29 -41 -40 -23 -3 6 -1 10 4 10 6 0 11 7 11 15 0 8 5 15 10
15 6 0 10 5 10 11 0 6 -7 9 -15 5 -9 -3 -15 0 -15 8 0 8 -6 17 -12 19 -8 3 -6
6 5 6 9 1 17 5 17 11 0 5 -6 7 -13 4 -8 -3 -14 1 -14 8 0 7 -4 21 -8 31 -5 12
-2 17 10 17 9 0 13 5 10 10 -3 6 -2 10 4 10 5 0 13 -4 16 -10 3 -5 11 -10 17
-10 6 0 2 8 -10 18 -14 12 -19 26 -15 40 4 18 1 21 -23 19 -20 -1 -28 2 -26
11 1 8 -2 11 -8 7 -6 -4 -17 -1 -25 5 -8 6 -20 8 -26 4 -8 -4 -9 -3 -5 4 4 7
2 12 -4 12 -6 0 -14 10 -19 22 -5 13 -17 23 -27 23 -12 0 -20 10 -25 33 -6 30
-5 32 10 18 13 -12 18 -12 29 0 6 7 13 23 13 36 1 13 6 2 12 -24 9 -41 14 -48
34 -48z m-1177 50 c0 -11 -7 -20 -15 -20 -17 0 -18 2 -9 24 9 23 24 20 24 -4z
m1450 -34 c0 -12 -5 -7 -19 24 -11 24 -11 24 3 6 9 -11 16 -24 16 -30z m115
33 c11 -17 -3 -23 -22 -8 -10 7 -6 0 10 -17 15 -17 27 -37 27 -46 0 -24 -30
-31 -51 -12 -27 24 -23 35 6 24 23 -9 25 -8 15 10 -5 10 -15 22 -20 25 -6 3
-10 13 -10 21 0 16 36 19 45 3z m-1200 -115 c-7 -15 -11 -32 -9 -39 3 -6 -2
-18 -11 -25 -13 -11 -18 -11 -28 0 -9 10 -9 13 1 17 6 3 12 13 12 24 0 10 5
19 12 19 6 0 8 3 5 7 -9 8 13 34 23 28 5 -3 3 -17 -5 -31z m1420 16 c3 -5 1
-10 -4 -10 -6 0 -11 5 -11 10 0 6 2 10 4 10 3 0 8 -4 11 -10z m-268 -42 c29
-32 36 -58 17 -58 -9 0 -18 9 -21 20 -3 11 -9 20 -14 20 -5 0 -9 7 -9 16 0 9
-5 12 -12 8 -7 -4 -8 -3 -4 4 10 17 20 15 43 -10z m-407 -7 c0 -11 -4 -23 -10
-26 -6 -4 -10 5 -10 19 0 14 5 26 10 26 6 0 10 -9 10 -19z m130 -41 c0 -5 -4
-10 -10 -10 -5 0 -10 5 -10 10 0 6 5 10 10 10 6 0 10 -4 10 -10z m527 -67 c-3
-10 -5 -2 -5 17 0 19 2 27 5 18 2 -10 2 -26 0 -35z m-1877 -73 c-11 -22 -22
-40 -25 -40 -7 0 14 52 27 67 19 24 19 13 -2 -27z m140 -50 c0 -5 -4 -10 -10
-10 -5 0 -10 5 -10 10 0 6 5 10 10 10 6 0 10 -4 10 -10z m40 -10 c0 -5 -2 -10
-4 -10 -3 0 -8 5 -11 10 -3 6 -1 10 4 10 6 0 11 -4 11 -10z m1500 -111 c-7
-11 -14 -18 -17 -15 -3 3 0 12 7 21 18 21 23 19 10 -6z m-400 -26 c0 -13 -3
-13 -15 -3 -8 7 -12 16 -9 21 8 13 24 1 24 -18z m365 -23 c-3 -5 -11 -10 -16
-10 -6 0 -7 5 -4 10 3 6 11 10 16 10 6 0 7 -4 4 -10z m-325 -32 c0 -6 -7 -5
-15 2 -8 7 -15 17 -15 22 0 6 7 5 15 -2 8 -7 15 -17 15 -22z m-583 -204 c8
-21 -13 -42 -28 -27 -13 13 -5 43 11 43 6 0 13 -7 17 -16z"/>
<path d="M285 1770 c3 -5 11 -10 16 -10 6 0 7 5 4 10 -3 6 -11 10 -16 10 -6 0
-7 -4 -4 -10z"/>
<path d="M1740 651 c0 -10 38 -24 57 -22 7 1 31 -8 54 -19 22 -12 38 -16 34
-10 -8 13 -111 60 -131 60 -8 0 -14 -4 -14 -9z"/>
<path d="M1893 2255 c-20 -14 -22 -55 -3 -55 5 0 6 8 3 19 -3 12 3 24 18 35
13 9 19 16 13 16 -5 0 -19 -7 -31 -15z"/>
<path d="M2031 2261 c-8 -5 -16 -18 -17 -28 -1 -10 -4 -36 -7 -58 -5 -36 -4
-38 8 -22 7 11 11 25 8 33 -3 8 0 14 6 14 6 0 11 -9 11 -20 0 -11 5 -20 10
-20 11 0 11 39 1 82 -4 21 -10 25 -20 19z"/>
<path d="M2074 2220 c-1 -28 3 -50 7 -50 10 0 12 14 9 44 -1 11 3 15 9 12 6
-4 11 -19 11 -33 0 -42 10 -20 14 31 3 44 2 46 -23 46 -24 0 -26 -3 -27 -50z
m36 36 c0 -3 -4 -8 -10 -11 -5 -3 -10 -1 -10 4 0 6 5 11 10 11 6 0 10 -2 10
-4z"/>
<path d="M2140 2225 c0 -25 5 -45 11 -45 5 0 8 3 6 8 -3 4 -1 16 4 27 l8 20 1
-20 c2 -11 2 -23 1 -27 0 -5 4 -8 9 -8 6 0 9 20 8 45 -1 44 -11 58 -21 33 -4
-10 -6 -10 -6 0 -1 6 -5 12 -11 12 -5 0 -10 -20 -10 -45z"/>
<path d="M2210 2250 c-1 -14 -4 -35 -5 -47 -1 -13 1 -23 5 -23 13 0 16 23 9
60 -5 29 -7 31 -9 10z"/>
<path d="M2239 2258 c-2 -25 3 -53 12 -64 5 -6 6 -14 2 -17 -3 -4 -1 -7 5 -7
16 0 15 33 0 48 -10 10 -10 17 0 32 10 17 10 20 -3 20 -8 0 -16 -6 -16 -12z"/>
<path d="M416 2245 c7 -17 -11 -21 -21 -5 -9 14 -68 13 -83 -2 -19 -19 -14
-43 13 -72 20 -22 28 -25 44 -16 11 5 27 7 35 4 13 -5 15 -2 10 12 -4 11 -4
16 0 13 8 -8 18 -46 20 -77 1 -14 6 -20 14 -17 8 3 17 5 22 5 5 0 23 21 40 47
27 39 30 50 21 70 -11 24 -35 31 -47 12 -3 -6 -17 -9 -30 -6 -13 2 -21 0 -18
-4 3 -5 -2 -9 -10 -9 -22 0 -20 16 4 33 18 13 19 15 5 21 -23 9 -25 8 -19 -9z"/>
<path d="M1982 2238 c-7 -7 -12 -27 -12 -44 0 -18 -4 -36 -10 -39 -6 -4 -10 9
-10 31 0 32 -2 35 -15 24 -9 -7 -14 -19 -11 -25 2 -6 1 -27 -4 -46 -7 -29 -8
-31 -10 -9 -1 14 -1 34 0 45 l2 20 -21 -20 c-19 -19 -19 -22 -4 -75 8 -30 15
-60 16 -67 0 -7 4 -10 9 -7 5 3 6 9 3 14 -3 5 -1 11 5 15 5 3 11 18 11 33 1
22 2 23 6 5 4 -23 29 -39 30 -20 1 7 9 47 18 90 17 81 17 95 -3 75z"/>
<path d="M1589 2171 c-26 -32 -18 -68 22 -102 26 -23 28 -29 20 -52 -12 -31
-2 -64 27 -90 24 -22 37 -75 33 -138 -2 -39 2 -52 25 -76 l27 -29 29 26 c32
30 48 91 29 114 -9 11 -6 26 15 70 15 31 30 59 35 62 13 8 10 57 -5 77 -17 22
-64 22 -88 0 -17 -15 -19 -15 -36 0 -10 10 -24 17 -31 17 -9 0 -11 6 -6 18 17
44 17 78 -3 102 -27 33 -68 34 -93 1z"/>
<path d="M1393 2133 c9 -2 17 -14 17 -26 1 -21 1 -21 15 -3 19 24 11 36 -23
35 -17 -1 -21 -3 -9 -6z"/>
<path d="M263 2119 c-26 -9 -38 -42 -24 -67 6 -10 26 -31 46 -46 19 -15 35
-34 35 -42 0 -7 5 -14 10 -14 6 0 10 7 10 15 0 8 6 12 13 10 6 -2 19 11 29 31
9 20 14 33 11 30 -4 -3 -11 4 -17 17 -13 26 -60 35 -83 15 -14 -11 -15 -11
-11 2 2 8 15 16 27 18 12 2 21 8 19 14 -6 17 -41 26 -65 17z"/>
<path d="M440 1725 c0 -8 4 -15 10 -15 5 0 7 7 4 15 -4 8 -8 15 -10 15 -2 0
-4 -7 -4 -15z"/>
<path d="M780 1660 c0 -5 5 -10 10 -10 6 0 10 5 10 10 0 6 -4 10 -10 10 -5 0
-10 -4 -10 -10z"/>
<path d="M1698 1663 c23 -2 59 -2 80 0 20 2 1 4 -43 4 -44 0 -61 -2 -37 -4z"/>
<path d="M1838 1663 c6 -2 18 -2 25 0 6 3 1 5 -13 5 -14 0 -19 -2 -12 -5z"/>
<path d="M1626 1499 c-16 -23 -12 -43 12 -72 14 -16 16 -16 34 -1 24 23 24 70
-1 84 -26 14 -28 13 -45 -11z"/>
<path d="M1742 1447 c4 -31 38 -36 38 -5 0 17 -6 24 -21 25 -15 1 -20 -3 -17
-20z"/>
<path d="M137 1393 c-13 -13 -7 -21 13 -16 11 3 20 9 20 14 0 10 -24 12 -33 2z"/>
<path d="M664 1349 c-3 -6 -1 -16 5 -22 8 -8 11 -5 11 11 0 24 -5 28 -16 11z"/>
<path d="M1955 1230 c3 -5 8 -10 11 -10 2 0 4 5 4 10 0 6 -5 10 -11 10 -5 0
-7 -4 -4 -10z"/>
<path d="M110 962 c0 -40 4 -72 9 -72 5 0 16 -3 25 -6 12 -5 16 0 16 21 0 14
4 35 10 45 11 21 4 50 -13 50 -6 0 -19 7 -29 17 -17 15 -18 13 -18 -55z"/>
<path d="M293 983 c4 -6 1 -13 -6 -16 -9 -3 -12 -16 -9 -36 7 -48 20 -46 24 5
2 25 -1 48 -6 51 -5 4 -6 1 -3 -4z"/>
<path d="M640 759 c0 -5 5 -7 10 -4 6 3 10 8 10 11 0 2 -4 4 -10 4 -5 0 -10
-5 -10 -11z"/>
<path d="M2256 729 c-9 -49 -7 -147 4 -154 6 -4 10 28 10 89 0 53 -2 96 -4 96
-2 0 -6 -14 -10 -31z"/>
<path d="M500 689 c0 -5 5 -7 10 -4 6 3 10 8 10 11 0 2 -4 4 -10 4 -5 0 -10
-5 -10 -11z"/>
<path d="M500 650 c0 -5 5 -10 11 -10 5 0 7 5 4 10 -3 6 -8 10 -11 10 -2 0 -4
-4 -4 -10z"/>
</g>
</svg>
